# xmcd
#
# Track frame offsets: 
#        182
#        11655
#        31980
#        49432
#        65315
#        84102
#        106047
#        118352
#        131907
#        146770
#        168597
#
# Disc length: 2412 seconds
#
# Revision: 2
# Processed by: cddbd v1.4PL0 Copyright (c) Steve Scherf et al.
# Submitted via: ExactAudioCopy v0.90b2
#
DISCID=98096a0b
DTITLE=The Desert Rose Band - Pages Of Life
DYEAR=1900
DGENRE=Country
TTITLE0=Story Of Love
TTITLE1=Start All Over Again
TTITLE2=Missing You
TTITLE3=Just A Memory
TTITLE4=God's Plan
TTITLE5=Darkness On The Playground
TTITLE6=Our Baby's Gone
TTITLE7=Time Passes Me By
TTITLE8=Everybody's Hero
TTITLE9=In Another Lifetime
TTITLE10=Desert Rose
EXTD=
EXTT0=
EXTT1=
EXTT2=
EXTT3=
EXTT4=
EXTT5=
EXTT6=
EXTT7=
EXTT8=
EXTT9=
EXTT10=
PLAYORDER=
